<svg width="30" height="33" viewBox="0 0 30 33" fill="none" xmlns="http://www.w3.org/2000/svg">
<path fill-rule="evenodd" clip-rule="evenodd" d="M14.6383 3.23442C14.6383 3.23442 14.6383 3.23443 14.6383 3.23442V3.23442ZM15 3.43422L5.2208 8.90047L15 13.7594L24.7792 8.90047L15 3.43422ZM26.666 11.6662L16.6666 16.6345V28.5122L26.666 22.9229V11.6662ZM13.3334 28.5122V16.6345L3.33404 11.6662V22.9229L13.3334 28.5122ZM14.4916 0.051897C14.827 -0.017299 15.173 -0.017299 15.5084 0.051897L15.5091 0.052045C15.9067 0.134252 16.2558 0.333518 16.4242 0.429645C16.4416 0.439613 16.4571 0.448472 16.4706 0.455976L16.4707 0.456035L29.1496 7.54312C29.6743 7.83645 29.9991 8.38823 29.9991 8.98654V23.1166C29.9991 23.1324 29.9993 23.1509 29.9995 23.1716C30.0014 23.3718 30.0053 23.786 29.8742 24.1826C29.7636 24.5172 29.5827 24.824 29.3444 25.0831C29.3441 25.0834 29.3438 25.0837 29.3436 25.084C29.3434 25.0841 29.3433 25.0842 29.3431 25.0844C29.0595 25.3923 28.6946 25.5918 28.5181 25.6883C28.4998 25.6983 28.4836 25.7071 28.4697 25.7149L15.8171 32.7873C15.3097 33.0709 14.6903 33.0709 14.183 32.7873L1.5301 25.7148C1.53008 25.7148 1.53006 25.7148 1.53003 25.7148C1.51613 25.707 1.49992 25.6981 1.4817 25.6882C1.3052 25.5917 0.940327 25.3922 0.656794 25.0844C0.417281 24.8245 0.236441 24.5171 0.125883 24.1828L0.125745 24.1824C-0.00526524 23.786 -0.0013516 23.3718 0.000539801 23.1717C0.000735865 23.1509 0.000910186 23.1325 0.000910186 23.1166V8.98654C0.000910186 8.38823 0.325661 7.83645 0.850424 7.54312L13.5294 0.455976C13.5429 0.448472 13.5584 0.439614 13.5758 0.429647C13.7442 0.33352 14.0933 0.134252 14.4909 0.052045L14.4916 0.051897Z" fill="#5186EC"/>
</svg>
